<?xml version="1.0" encoding="UTF-8"?>
<svg version="1.1" xmlns="http://www.w3.org/2000/svg" width="192" height="192">
<path d="M0 0 C0.54398438 0.46664062 1.08796875 0.93328125 1.6484375 1.4140625 C2.30328125 1.95417969 2.958125 2.49429688 3.6328125 3.05078125 C4.42171875 3.70691406 5.210625 4.36304687 6.0234375 5.0390625 C7.12871348 5.88429349 8.23842627 6.72374158 9.3515625 7.55859375 C9.93599121 7.9983252 10.52041992 8.43805664 11.12255859 8.89111328 C12.29107499 9.7698299 13.46064433 10.64714834 14.63134766 11.52294922 C17.30838209 13.56491782 19.13586797 15.20770821 21.0234375 18.0390625 C21.68951682 25.02806867 19.97805991 31.9415185 18.7109375 38.7890625 C18.49759766 40.02011719 18.28425781 41.25117187 18.06445312 42.51953125 C17.84853516 43.69644531 17.63261719 44.87335938 17.41015625 46.0859375 C17.11951294 47.69227051 17.11951294 47.69227051 16.82299805 49.33105469 C15.97742486 52.19490133 15.38196894 53.27182289 13.0234375 55.0390625 C11.23339844 55.97460938 11.23339844 55.97460938 9.2578125 56.7578125 C8.53207031 57.05042969 7.80632812 57.34304687 7.05859375 57.64453125 C5.92744141 58.08732422 5.92744141 58.08732422 4.7734375 58.5390625 C3.28888389 59.13236578 1.80450691 59.72611121 0.3203125 60.3203125 C-0.40607422 60.60390625 -1.13246094 60.8875 -1.88085938 61.1796875 C-3.21919451 61.72849221 -4.54167343 62.31894955 -5.83789062 62.9609375 C-10.29547192 65.15237411 -13.1966087 65.35918783 -17.9765625 64.0390625 C-21.99655468 61.46993768 -25.39919607 58.18753486 -28.9765625 55.0390625 C-29.94335938 54.30945313 -30.91015625 53.57984375 -31.90625 52.828125 C-38.44721279 47.69541482 -38.44721279 47.69541482 -39.703125 43.765625 C-39.80791061 40.7458942 -39.43966667 38.03091536 -38.9765625 35.0390625 C-38.76125453 33.30767048 -38.54931799 31.5758575 -38.33984375 29.84375 C-36.09349043 12.24402043 -36.09349043 12.24402043 -33.9765625 9.0390625 C-28.97682441 5.71299453 -23.04306106 3.78595611 -17.4140625 1.7890625 C-16.69798828 1.5209375 -15.98191406 1.2528125 -15.24414062 0.9765625 C-10.2534491 -0.80355677 -5.05287566 -2.45653639 0 0 Z " fill="#344737" transform="translate(121.9765625,67.9609375)"/>
<path d="M0 0 C0.68513672 0.39574219 1.37027344 0.79148437 2.07617188 1.19921875 C3.40851186 1.98143953 4.72758402 2.7868034 6.03076172 3.61669922 C7.57625147 4.59973066 9.16969121 5.5065848 10.76953125 6.3984375 C14.08279184 10.21217149 13.45933739 14.2526685 13.3125 19.125 C13.31636719 20.52492188 13.31636719 20.52492188 13.3203125 21.953125 C13.24572233 27.21919094 12.94266731 31.31559631 9.8125 35.75 C5.7677628 38.85736197 0.77884458 40.56114696 -3.9375 42.4375 C-4.69804688 42.75783203 -5.45859375 43.07816406 -6.2421875 43.40820312 C-12.5509825 45.91568181 -18.63079773 47.11214129 -25.125 44.625 C-26.135625 44.00625 -27.14625 43.3875 -28.1875 42.75 C-28.97253906 42.30140625 -29.75757812 41.8528125 -30.56640625 41.390625 C-32.32053615 40.37631442 -34.05661675 39.33016095 -35.7734375 38.25390625 C-38.07380489 36.76516207 -38.07380489 36.76516207 -40.1640625 35.77734375 C-41.8125 34.8125 -41.8125 34.8125 -44.1875 31.75 C-45.31407822 23.01389801 -45.39450271 12.40532652 -40.25 4.9375 C-35.87848547 1.81498962 -31.28121033 0.35205406 -26.1875 -1.25 C-25.3109375 -1.55164063 -24.434375 -1.85328125 -23.53125 -2.1640625 C-14.25637661 -5.22706081 -8.29331837 -5.06328911 0 0 Z " fill="#3C9048" transform="translate(104.1875,25.25)"/>
<path d="M0 0 C2.33118126 1.80413159 4.59832454 3.67376787 6.87109375 5.55078125 C9.31510828 7.39769967 11.76452678 9.23698678 14.21875 11.0703125 C14.76402344 11.55886719 15.30929688 12.04742187 15.87109375 12.55078125 C15.87109375 13.21078125 15.87109375 13.87078125 15.87109375 14.55078125 C16.51046875 14.86015625 17.14984375 15.16953125 17.80859375 15.48828125 C19.87109375 16.55078125 19.87109375 16.55078125 20.87109375 17.55078125 C20.37619053 23.21397764 19.24709216 28.56110535 17.80859375 34.05078125 C17.62232422 34.7778125 17.43605469 35.50484375 17.24414062 36.25390625 C16.7908292 38.02065849 16.33159355 39.785889 15.87109375 41.55078125 C-5.84980322 47.98210828 -5.84980322 47.98210828 -14.49609375 44 C-19.02754122 41.11300383 -23.23062564 37.75459722 -27.44140625 34.42578125 C-28.25158203 33.79285156 -29.06175781 33.15992188 -29.89648438 32.5078125 C-35.81055442 27.86913308 -35.81055442 27.86913308 -38.12890625 25.55078125 C-39.02209129 17.80984422 -37.16449369 8.35196547 -32.98046875 1.734375 C-30.0168804 -0.16007071 -26.73081358 -0.52939945 -23.31640625 -1.07421875 C-22.61708984 -1.19539063 -21.91777344 -1.3165625 -21.19726562 -1.44140625 C-19.82025704 -1.67842176 -18.44207327 -1.90872126 -17.06274414 -2.13183594 C-15.31241471 -2.41910121 -13.56781712 -2.74076968 -11.82421875 -3.06640625 C-7.24758292 -3.71642119 -3.81160872 -2.59469144 0 0 Z " fill="#3EA14E" transform="translate(83.12890625,120.44921875)"/>
<path d="M0 0 C4.95747475 -0.39195262 7.34145436 0.4223257 11.3125 3.375 C12.60607422 4.31472656 12.60607422 4.31472656 13.92578125 5.2734375 C16.74928195 7.62369609 16.95050295 8.54407719 17.3515625 12.23828125 C18.37630048 26.24535336 19.25236354 42.10454139 10.80078125 54.12890625 C7.96287088 57.33031601 4.75786464 59.16071522 0.9375 61 C0.02000977 61.48533203 0.02000977 61.48533203 -0.91601562 61.98046875 C-5.39960684 64.20045229 -5.39960684 64.20045229 -8.43359375 63.1875 C-8.95050781 62.795625 -9.46742188 62.40375 -10 62 C-10 61.34 -10 60.68 -10 60 C-10.99 59.67 -11.98 59.34 -13 59 C-14.5703125 57.36328125 -14.5703125 57.36328125 -16.125 55.3125 C-16.64320313 54.64863281 -17.16140625 53.98476562 -17.6953125 53.30078125 C-20.97117676 47.52388291 -19.77438384 41.9088034 -18.6875 35.6875 C-18.49124023 34.4819043 -18.49124023 34.4819043 -18.29101562 33.25195312 C-16.13018918 20.2765557 -13.39467295 11.86472108 -3 3 C-2.34 3 -1.68 3 -1 3 C-0.67 2.01 -0.34 1.02 0 0 Z " fill="#3D8F49" transform="translate(163,72)"/>
<path d="M0 0 C1.66648407 0.33424503 3.33311148 0.66777785 5 1 C4.45512339 5.67202713 3.87615398 10.33738287 3.25585938 15 C3.04570594 16.6427261 2.86964995 18.28977947 2.703125 19.9375 C1.42632989 29.42226367 -5.40017103 35.56939741 -12 42 C-13.83804933 44.05877578 -15.64688142 46.14039685 -17.44921875 48.23046875 C-18.58693322 49.52866688 -19.7794033 50.7794033 -21 52 C-25.90640384 51.71693824 -29.93093119 50.80959513 -34 48 C-36.78670034 37.94489569 -30.63851318 27.5835943 -25.80859375 19.03515625 C-20.22712077 9.66840786 -20.22712077 9.66840786 -18 7 C-17.34 7 -16.68 7 -16 7 C-15.79375 6.4225 -15.5875 5.845 -15.375 5.25 C-11.43099543 -1.20382567 -6.63894913 -1.49664171 0 0 Z " fill="#386840" transform="translate(52,32)"/>
<path d="M0 0 C1.41681331 0.28321111 2.83184404 0.57534679 4.24609375 0.87109375 C5.0342749 1.03279053 5.82245605 1.1944873 6.63452148 1.36108398 C11.73053505 2.73751783 15.33978969 5.16490746 18.04394531 9.78271484 C19.91554076 13.39542978 21.55942664 17.08559379 23.15234375 20.828125 C24.5620845 24.13980363 26.26452819 26.99328029 28.25 30 C31.54397794 36.36835735 28.74494803 43.61686782 26.703125 50.07226562 C25.69466035 52.83713953 24.39843767 55.41451641 23 58 C19.0479792 57.76752819 16.59539574 57.43945876 13.375 55.0625 C7.35948147 47.30564716 4.53807587 38.38035412 2 29 C1.65775391 27.82050781 1.65775391 27.82050781 1.30859375 26.6171875 C-0.84669779 17.96587742 -0.16349615 8.84695823 0 0 Z " fill="#364F3A" transform="translate(15,85)"/>
<path d="M0 0 C19.84248543 -0.98122181 39.15700936 5.59085818 54 19 C54 19.99 54 20.98 54 22 C39.15649454 22.45750531 25.96432629 21.88588675 13 14 C11.97261719 13.37996094 10.94523437 12.75992187 9.88671875 12.12109375 C2.58433219 7.58433219 2.58433219 7.58433219 0 5 C-0.125 2.375 -0.125 2.375 0 0 Z " fill="#334437" transform="translate(96,10)"/>
<path d="M0 0 C0 0.99 0 1.98 0 3 C-7.01024004 5.41784852 -13.59696883 6.6576633 -21 7 C-22.18335938 7.061875 -22.18335938 7.061875 -23.390625 7.125 C-32.14913007 7.35701338 -41.5515131 6.3562363 -50 4 C-50 3.01 -50 2.02 -50 1 C-32.69311252 -3.6561677 -17.57879166 -3.10036908 0 0 Z " fill="#2F3A33" transform="translate(124,171)"/>
<path d="M0 0 C3.36179774 1.44077046 5.59156268 3.24750021 8 6 C8 6.66 8 7.32 8 8 C8.66 8 9.32 8 10 8 C22 28.47572816 22 28.47572816 22 35 C18.04472438 34.66097638 16.06244096 33.48317673 13.33569336 30.63842773 C10.71240678 27.42057428 8.83276313 23.77110932 6.875 20.125 C6.44574219 19.34769531 6.01648438 18.57039063 5.57421875 17.76953125 C-1.18001198 5.40409345 -1.18001198 5.40409345 -0.6875 1.5625 C-0.460625 1.046875 -0.23375 0.53125 0 0 Z " fill="#313B34" transform="translate(154,34)"/>
<path d="M0 0 C-0.96173547 6.01084669 -4.98364182 11.58200601 -9 16 C-9.66 16 -10.32 16 -11 16 C-11.33 16.99 -11.66 17.98 -12 19 C-14.50390625 21.04296875 -14.50390625 21.04296875 -17.5625 23.1875 C-18.57441406 23.90292969 -19.58632812 24.61835938 -20.62890625 25.35546875 C-21.41136719 25.89816406 -22.19382813 26.44085938 -23 27 C-23.66 26.34 -24.32 25.68 -25 25 C-21.6465138 19.7922332 -18.13620933 14.70190034 -14.5 9.6875 C-13.7884375 8.70136719 -13.076875 7.71523437 -12.34375 6.69921875 C-8.62226147 2.41330446 -5.76664875 0 0 0 Z " fill="#2F3932" transform="translate(167,137)"/>
<path d="M0 0 C1.98 0 3.96 0 6 0 C3.42520138 2.12042239 0.93266535 4.04011426 -1.9375 5.75 C-5.30835085 8.22654348 -7.3210753 10.80153201 -9.703125 14.1953125 C-11 16 -11 16 -13 18 C-13.67940467 20.42715206 -13.67940467 20.42715206 -14.125 23.125 C-14.29257813 24.03507812 -14.46015625 24.94515625 -14.6328125 25.8828125 C-14.75398437 26.58148438 -14.87515625 27.28015625 -15 28 C-15.66 28 -16.32 28 -17 28 C-15.49779761 16.89160862 -11.56784339 10.30677553 -3 3 C-2.34 3 -1.68 3 -1 3 C-0.67 2.01 -0.34 1.02 0 0 Z " fill="#3C824C" transform="translate(163,72)"/>
<path d="M0 0 C0.99 0.495 0.99 0.495 2 1 C2.0270043 2.45823212 2.04639787 3.91660675 2.0625 5.375 C2.07410156 6.18710937 2.08570313 6.99921875 2.09765625 7.8359375 C2 10 2 10 1 12 C1.66 12 2.32 12 3 12 C3.433125 12.45375 3.86625 12.9075 4.3125 13.375 C6.35628817 15.34309231 8.34530324 16.06726871 11 17 C11 17.66 11 18.32 11 19 C12.98 19.66 14.96 20.32 17 21 C17 21.66 17 22.32 17 23 C20.3 23.99 23.6 24.98 27 26 C27 26.33 27 26.66 27 27 C17.17913299 26.37313615 6.88111807 19.88111807 0 13 C-0.1953125 9.9609375 -0.1953125 9.9609375 -0.125 6.375 C-0.10695312 5.18648437 -0.08890625 3.99796875 -0.0703125 2.7734375 C-0.04710937 1.85820313 -0.02390625 0.94296875 0 0 Z " fill="#44824F" transform="translate(60,44)"/>
<path d="M0 0 C0.33 0 0.66 0 1 0 C1.08767555 3.37483413 1.14061628 6.74937215 1.1875 10.125 C1.22520508 11.55199219 1.22520508 11.55199219 1.26367188 13.0078125 C1.32017148 18.43177433 1.13616356 22.34802405 -2 27 C-4.87972319 29.14133263 -7.4760069 30.34740869 -11 31 C-11 30.34 -11 29.68 -11 29 C-5.25 26 -5.25 26 -3 26 C-1.14520646 17.33829426 -0.45263663 8.82641419 0 0 Z " fill="#427A4C" transform="translate(116,34)"/>
<path d="M0 0 C4.60139641 1.48868707 7.50227094 3.74629855 11 7 C11 7.66 11 8.32 11 9 C7.03935893 7.25731793 3.25563451 4.85325271 0 2 C0 1.34 0 0.68 0 0 Z " fill="#458D56" transform="translate(48,147)"/>
<path d="M0 0 C3.875 1.875 3.875 1.875 5 3 C4.82364548 5.69082872 4.38164079 8.32851446 4 11 C3.67 11 3.34 11 3 11 C3 8.36 3 5.72 3 3 C2.01 2.67 1.02 2.34 0 2 C0 1.34 0 0.68 0 0 Z " fill="#407D4E" transform="translate(99,135)"/>
<path d="M0 0 C2.475 0.495 2.475 0.495 5 1 C5 1.66 5 2.32 5 3 C5.66 3 6.32 3 7 3 C7.33 3.99 7.66 4.98 8 6 C5.33333333 4.66666667 2.66666667 3.33333333 0 2 C0 1.34 0 0.68 0 0 Z " fill="#3B7348" transform="translate(66,60)"/>
<path d="M0 0 C0.66 0 1.32 0 2 0 C0.55746343 3.36591866 -1.33264727 5.51047079 -4 8 C-4.66 7.67 -5.32 7.34 -6 7 C-4.625 5 -4.625 5 -3 3 C-2.34 3 -1.68 3 -1 3 C-0.67 2.01 -0.34 1.02 0 0 Z " fill="#31613A" transform="translate(37,36)"/>
</svg>
